<svg id="Layer_1" xmlns="http://www.w3.org/2000/svg" viewBox="0 0 587.2 174.5"><style>.st0{fill:none}.st5{opacity:.2;fill:#fff;enable-background:new}.st13{fill:#757575}</style><g id="XMLID_601_"><g id="XMLID_602_"><path class="st0" d="M108.6 79.5l-44-76.2H5.7l48.6 84.1-48.6 84h58.9l44.1-76.2c2.8-4.8 2.8-10.8-.1-15.7z"/><path id="XMLID_610_" fill="#fcbf12" d="M83.4 137.6l-14-24.1-33.5 57.9h28.7l19.1-33.1z"/><path class="st0" d="M108.6 79.5l-44-76.2H5.7l48.6 84.1-48.6 84h58.9l44.1-76.2c2.8-4.8 2.8-10.8-.1-15.7z"/><path fill="#0a9c58" d="M54.3 87.4l15.1 26.1-33.5 57.9H5.7z"/><path class="st0" d="M108.6 79.5l-44-76.2H5.7l48.6 84.1-48.6 84h58.9l44.1-76.2c2.8-4.8 2.8-10.8-.1-15.7z"/><path opacity=".2" fill="#bd3a26" d="M64.6 170.1h-28l-.7 1.3h28.7l19.1-33.1-.3-.7z"/><path class="st0" d="M108.6 79.5l-44-76.2H5.7l48.6 84.1-48.6 84h58.9l44.1-76.2c2.8-4.8 2.8-10.8-.1-15.7z"/><path opacity=".2" fill="#263238" d="M6.4 170.1l-.7 1.3h30.2l.7-1.3z"/><path class="st0" d="M108.6 79.5l-44-76.2H5.7l48.6 84.1-48.6 84h58.9l44.1-76.2c2.8-4.8 2.8-10.8-.1-15.7z"/><path class="st5" d="M5.7 171.4h.7L54.7 88l-.4-.6z"/><path class="st0" d="M108.6 79.5l-44-76.2H5.7l48.6 84.1-48.6 84h58.9l44.1-76.2c2.8-4.8 2.8-10.8-.1-15.7z"/><radialGradient id="XMLID_2_" cx="83.5334" cy="38.9635" r="58.1437" gradientTransform="matrix(1 0 0 -1 0 176.7418)" gradientUnits="userSpaceOnUse"><stop offset="0" stop-color="#bd3a26" stop-opacity=".2"/><stop offset="1" stop-color="#bd3a26" stop-opacity=".02"/></radialGradient><path id="XMLID_609_" fill="url(#XMLID_2_)" d="M83.7 138.3l-14.3-24.8-3.5 6.1z"/><path class="st0" d="M108.6 79.5l-44-76.2H5.7l48.6 84.1-48.6 84h58.9l44.1-76.2c2.8-4.8 2.8-10.8-.1-15.7z"/><radialGradient id="XMLID_3_" cx="83.3683" cy="38.5959" r="58.6157" gradientTransform="matrix(1 0 0 -1 0 176.7418)" gradientUnits="userSpaceOnUse"><stop offset="0" stop-color="#263238" stop-opacity=".2"/><stop offset="1" stop-color="#263238" stop-opacity=".02"/></radialGradient><path id="XMLID_608_" fill="url(#XMLID_3_)" d="M65.9 119.6l3.5-6.1-15.1-26.1-7.2 12.4z"/><path class="st0" d="M108.6 79.5l-44-76.2H5.7l48.6 84.1-48.6 84h58.9l44.1-76.2c2.8-4.8 2.8-10.8-.1-15.7z"/><g id="XMLID_605_"><g id="XMLID_606_"><path id="XMLID_607_" fill="#547dbe" d="M35.9 3.3H5.7l78 135 15.1-26.1h.1z"/></g></g><path class="st0" d="M108.6 79.5l-44-76.2H5.7l48.6 84.1-48.6 84h58.9l44.1-76.2c2.8-4.8 2.8-10.8-.1-15.7z"/><path d="M108.6 95.3c2.8-4.9 2.8-10.9 0-15.8l-44-76.2H35.9l63 108.9 9.7-16.9z" fill="#da4536"/><path class="st0" d="M108.6 79.5l-44-76.2H5.7l48.6 84.1-48.6 84h58.9l44.1-76.2c2.8-4.8 2.8-10.8-.1-15.7z"/><path opacity=".2" fill="#2d2f78" d="M98.9 112.2l-.4-.7L83.7 137 6.4 3.3h-.7l78 135 15.1-26.1z"/><path class="st0" d="M108.6 79.5l-44-76.2H5.7l48.6 84.1-48.6 84h58.9l44.1-76.2c2.8-4.8 2.8-10.8-.1-15.7z"/><path class="st5" d="M64.6 4.6l44.1 76.2c1.3 2.2 2 4.7 2.1 7.2.1-2.9-.6-5.9-2.1-8.5L64.6 3.3H5.7l.8 1.3h58.1z"/><path class="st0" d="M108.6 79.5l-44-76.2H5.7l48.6 84.1-48.6 84h58.9l44.1-76.2c2.8-4.8 2.8-10.8-.1-15.7z"/><path id="XMLID_604_" d="M98.9 112.2l9.8-16.9c1.5-2.6 2.2-5.6 2.1-8.5-.1 2.5-.8 5-2.1 7.2l-10.2 17.6.4.6z" opacity=".2" fill="#3e2723"/><path class="st0" d="M108.6 79.5l-44-76.2H5.7l48.6 84.1-48.6 84h58.9l44.1-76.2c2.8-4.8 2.8-10.8-.1-15.7z"/><radialGradient id="XMLID_4_" cx="4.3552" cy="172.1265" r="176.48" gradientTransform="matrix(1 0 0 -1 0 176.7418)" gradientUnits="userSpaceOnUse"><stop offset="0" stop-color="#fff" stop-opacity=".1"/><stop offset="1" stop-color="#fff" stop-opacity="0"/></radialGradient><path id="XMLID_603_" d="M108.6 79.5l-44-76.2H5.7l48.6 84.1-48.6 84h58.9l44.1-76.2c2.8-4.8 2.8-10.8-.1-15.7z" fill="url(#XMLID_4_)"/></g></g><path class="st13" d="M307.6 89.6c0 18.3-5.4 32.9-16.3 43.8-12.2 12.9-28.3 19.4-48.1 19.4-19 0-35.2-6.6-48.3-19.8-13.2-13.2-19.8-29.4-19.8-48.7 0-19.3 6.6-35.5 19.8-48.7 13.2-13.2 29.3-19.8 48.3-19.8 9.6 0 18.7 1.7 27.3 5.1 8.5 3.4 15.6 8.2 21.1 14.5l-12.1 12.1c-4-4.9-9.2-8.7-15.7-11.4S250.5 32 243.2 32c-14.3 0-26.4 4.9-36.2 14.8-9.8 10-14.6 22.5-14.6 37.5s4.9 27.5 14.6 37.5c9.9 9.9 22 14.8 36.2 14.8 13.1 0 23.9-3.7 32.6-11 8.7-7.3 13.7-17.4 15-30.2h-47.6V79.8h63.5c.6 3.4.9 6.7.9 9.8zM328.1 149.9V18.8h40.1c20 0 36.1 6 48.2 18.1 12.1 12.1 18.2 27.9 18.2 47.4 0 19.7-6.1 35.5-18.2 47.5s-28.2 18-48.2 18h-40.1zm16.9-115v98.9h23.3c15.3 0 27.3-4.4 36.1-13.1s13.2-20.8 13.2-36.3c0-15.4-4.4-27.5-13.2-36.2S383.6 35 368.3 35H345zM580.8 89.6c0 18.3-5.4 32.9-16.3 43.8-12.2 12.9-28.3 19.4-48.1 19.4-19 0-35.2-6.6-48.3-19.8-13.2-13.2-19.8-29.4-19.8-48.7 0-19.3 6.6-35.5 19.8-48.7 13.2-13.2 29.3-19.8 48.3-19.8 9.6 0 18.7 1.7 27.3 5.1 8.5 3.4 15.6 8.2 21.1 14.5l-12.1 12.1c-4-4.9-9.2-8.7-15.7-11.4S523.7 32 516.3 32c-14.3 0-26.4 4.9-36.2 14.8-9.8 10-14.6 22.5-14.6 37.5s4.9 27.5 14.6 37.5c9.9 9.9 22 14.8 36.2 14.8 13.1 0 23.9-3.7 32.6-11 8.7-7.3 13.7-17.4 15-30.2h-47.6V79.8h63.5c.7 3.4 1 6.7 1 9.8z"/></svg>