<svg id="Layer_1" xmlns="http://www.w3.org/2000/svg" viewBox="0 0 1732 252"><style>.st0{fill:none}.st5{opacity:.2;fill:#fff;enable-background:new}.st13{fill:#767676}</style><g id="_Group_2"><path class="st0" d="M176.5 118.1l-44.1-76.2H73.6l48.6 84.1-48.6 84.1h58.9l44.1-76.2c2.8-4.9 2.8-10.9-.1-15.8z"/><path id="_Path_" fill="#fcbf12" d="M151.3 176.3l-14-24.2-33.5 58h28.7l19.1-33.2z"/><path class="st0" d="M176.5 118.1l-44.1-76.2H73.6l48.6 84.1-48.6 84.1h58.9l44.1-76.2c2.8-4.9 2.8-10.9-.1-15.8z"/><path fill="#0a9c58" d="M122.2 126l15.1 26.1-33.5 58H73.6z"/><path class="st0" d="M176.5 118.1l-44.1-76.2H73.6l48.6 84.1-48.6 84.1h58.9l44.1-76.2c2.8-4.9 2.8-10.9-.1-15.8z"/><path opacity=".2" fill="#bd3a26" d="M132.5 208.8h-28l-.7 1.3h28.7l19.1-33.2-.3-.6z"/><path class="st0" d="M176.5 118.1l-44.1-76.2H73.6l48.6 84.1-48.6 84.1h58.9l44.1-76.2c2.8-4.9 2.8-10.9-.1-15.8z"/><path opacity=".2" fill="#263238" d="M74.3 208.8l-.7 1.3h30.2l.7-1.3z"/><path class="st0" d="M176.5 118.1l-44.1-76.2H73.6l48.6 84.1-48.6 84.1h58.9l44.1-76.2c2.8-4.9 2.8-10.9-.1-15.8z"/><path class="st5" d="M73.6 210.1h.7l48.3-83.4-.4-.7z"/><path class="st0" d="M176.5 118.1l-44.1-76.2H73.6l48.6 84.1-48.6 84.1h58.9l44.1-76.2c2.8-4.9 2.8-10.9-.1-15.8z"/><radialGradient id="_Path_2_1_" cx="151.43" cy="782.41" r="58.14" gradientTransform="translate(0 -606)" gradientUnits="userSpaceOnUse"><stop offset="0" stop-color="#bd3a26" stop-opacity=".2"/><stop offset="1" stop-color="#bd3a26" stop-opacity=".02"/></radialGradient><path id="_Path_2" fill="url(#_Path_2_1_)" d="M151.6 176.9l-14.3-24.8-3.5 6.1z"/><path class="st0" d="M176.5 118.1l-44.1-76.2H73.6l48.6 84.1-48.6 84.1h58.9l44.1-76.2c2.8-4.9 2.8-10.9-.1-15.8z"/><radialGradient id="_Path_3_1_" cx="151.26" cy="782.78" r="58.62" gradientTransform="translate(0 -606)" gradientUnits="userSpaceOnUse"><stop offset="0" stop-color="#263238" stop-opacity=".2"/><stop offset="1" stop-color="#263238" stop-opacity=".02"/></radialGradient><path id="_Path_3" fill="url(#_Path_3_1_)" d="M133.8 158.2l3.5-6.1-15.1-26.1-7.2 12.5z"/><path class="st0" d="M176.5 118.1l-44.1-76.2H73.6l48.6 84.1-48.6 84.1h58.9l44.1-76.2c2.8-4.9 2.8-10.9-.1-15.8z"/><g id="_Group_3"><g id="_Group_4"><path id="_Path_4" fill="#547dbe" d="M103.8 41.9H73.6l78 135 15.1-26.1h.1z"/></g></g><path class="st0" d="M176.5 118.1l-44.1-76.2H73.6l48.6 84.1-48.6 84.1h58.9l44.1-76.2c2.8-4.9 2.8-10.9-.1-15.8z"/><path d="M176.5 133.9c2.8-4.9 2.8-10.9 0-15.8l-44.1-76.2h-28.7l63 108.9 9.8-16.9z" fill="#da4536"/><path class="st0" d="M176.5 118.1l-44.1-76.2H73.6l48.6 84.1-48.6 84.1h58.9l44.1-76.2c2.8-4.9 2.8-10.9-.1-15.8z"/><path opacity=".2" fill="#2d2f78" d="M166.8 150.8l-.4-.6-14.8 25.4L74.3 41.9h-.7l78 135 15.1-26.1z"/><path class="st0" d="M176.5 118.1l-44.1-76.2H73.6l48.6 84.1-48.6 84.1h58.9l44.1-76.2c2.8-4.9 2.8-10.9-.1-15.8z"/><path class="st5" d="M132.5 43.2l44.1 76.2c1.3 2.2 2 4.7 2.1 7.2.1-3-.6-5.9-2.1-8.5l-44.1-76.2H73.6l.8 1.3h58.1z"/><path class="st0" d="M176.5 118.1l-44.1-76.2H73.6l48.6 84.1-48.6 84.1h58.9l44.1-76.2c2.8-4.9 2.8-10.9-.1-15.8z"/><path id="_Path_5" d="M166.8 150.8l9.8-16.9c1.5-2.6 2.2-5.6 2.1-8.5-.1 2.5-.8 5-2.1 7.2l-10.2 17.6.4.6z" opacity=".2" fill="#3e2723"/><path class="st0" d="M176.5 118.1l-44.1-76.2H73.6l48.6 84.1-48.6 84.1h58.9l44.1-76.2c2.8-4.9 2.8-10.9-.1-15.8z"/><radialGradient id="_Path_6_1_" cx="72.25" cy="649.24" r="176.48" gradientTransform="translate(0 -606)" gradientUnits="userSpaceOnUse"><stop offset="0" stop-color="#fff" stop-opacity=".1"/><stop offset="1" stop-color="#fff" stop-opacity="0"/></radialGradient><path id="_Path_6" d="M176.5 118.1l-44.1-76.2H73.6l48.6 84.1-48.6 84.1h58.9l44.1-76.2c2.8-4.9 2.8-10.9-.1-15.8z" fill="url(#_Path_6_1_)"/></g><path class="st13" d="M398.7 131.4c0 18.8-5.6 33.7-16.7 44.8-12.5 13.3-29 19.9-49.3 19.9-19.5 0-36-6.8-49.5-20.3s-20.3-30.1-20.3-49.9c0-19.8 6.8-36.4 20.3-49.9s30-20.3 49.5-20.3c9.9 0 19.2 1.8 28 5.3s15.9 8.4 21.6 14.8l-12.4 12.4c-4.1-5-9.5-8.9-16-11.7-6.6-2.8-13.6-4.2-21.1-4.2-14.6 0-27 5.1-37.1 15.2-10 10.3-15 23.1-15 38.5 0 15.4 5 28.2 15 38.5 10.1 10.1 22.5 15.2 37.1 15.2 13.4 0 24.5-3.8 33.4-11.3 8.9-7.5 14-17.8 15.4-31h-48.8v-16.1h65.1c.5 3.5.8 6.9.8 10.1zM419.7 193.2V58.8h41.1c20.5 0 37 6.2 49.4 18.6 12.4 12.4 18.7 28.6 18.7 48.6 0 20.1-6.2 36.4-18.7 48.7-12.4 12.3-28.9 18.5-49.4 18.5h-41.1zM437 75.3v101.3h23.8c15.6 0 28-4.5 37-13.4s13.5-21.4 13.5-37.2c0-15.8-4.5-28.1-13.5-37.1s-21.3-13.5-37-13.5H437zM678.6 131.4c0 18.8-5.6 33.7-16.7 44.8-12.5 13.3-29 19.9-49.3 19.9-19.5 0-36-6.8-49.5-20.3s-20.3-30.1-20.3-49.9c0-19.8 6.8-36.4 20.3-49.9s30-20.3 49.5-20.3c9.9 0 19.2 1.8 28 5.3s15.9 8.4 21.6 14.8l-12.4 12.4c-4.1-5-9.5-8.9-16-11.7s-13.6-4.2-21.1-4.2c-14.6 0-27 5.1-37.1 15.2-10 10.3-15 23.1-15 38.5 0 15.4 5 28.2 15 38.5 10.1 10.1 22.5 15.2 37.1 15.2 13.4 0 24.5-3.8 33.4-11.3 8.9-7.5 14-17.8 15.4-31h-48.8v-16.1h65.1c.5 3.5.8 6.9.8 10.1zM800.4 196.2c-19.9 0-36.5-6.7-49.9-20.1-13.3-13.4-19.9-30.1-19.9-50.1s6.6-36.6 19.9-49.9c13.3-13.5 29.9-20.3 49.9-20.3 20.3 0 36.7 7.3 49.3 21.9l-12.4 12c-9.6-11.6-21.9-17.4-37-17.4-14.9 0-27.3 5-37.3 15-9.9 9.9-14.8 22.8-14.8 38.6 0 15.9 4.9 28.8 14.8 38.6 10 10 22.4 15 37.3 15 15.6 0 29.2-6.6 40.7-19.7l12.6 12.2c-6.4 7.6-14.2 13.5-23.4 17.7-9.3 4.4-19.2 6.5-29.8 6.5zM902 98.2c12.8 0 22.8 3.4 30.2 10.2 7.4 6.8 11.1 16.2 11.1 28v56.7h-16.5v-12.8h-.8c-7.1 10.5-16.6 15.8-28.5 15.8-10.1 0-18.6-3-25.4-9-6.8-6-10.2-13.5-10.2-22.5 0-9.5 3.6-17.1 10.8-22.7 7.2-5.6 16.8-8.4 28.8-8.4 10.3 0 18.7 1.9 25.3 5.6v-3.9c0-6-2.4-11.1-7.1-15.3-4.8-4.2-10.3-6.3-16.7-6.3-9.6 0-17.3 4.1-22.9 12.2l-15.2-9.6c8.4-12 20.7-18 37.1-18zM879.7 165c0 4.5 1.9 8.3 5.7 11.3 3.8 3 8.3 4.5 13.4 4.5 7.3 0 13.7-2.7 19.4-8.1 5.7-5.4 8.5-11.7 8.5-18.9-5.4-4.2-12.9-6.4-22.5-6.4-7 0-12.9 1.7-17.5 5.1-4.6 3.3-7 7.5-7 12.5zM1032.2 167.6c0 8-3.5 14.8-10.5 20.3s-15.8 8.3-26.5 8.3c-9.3 0-17.4-2.4-24.4-7.2-7-4.8-12-11.2-15-19l15.4-6.6c2.3 5.5 5.5 9.8 9.8 12.9 4.3 3.1 9 4.6 14.2 4.6 5.5 0 10.1-1.2 13.8-3.6 3.7-2.4 5.5-5.2 5.5-8.4 0-5.9-4.5-10.2-13.5-12.9l-15.8-3.9c-17.9-4.5-26.8-13.1-26.8-25.9 0-8.4 3.4-15.1 10.2-20.2 6.8-5.1 15.5-7.6 26.2-7.6 8.1 0 15.5 1.9 22 5.8 6.6 3.9 11.2 9.1 13.8 15.6l-15.4 6.4c-1.8-3.9-4.6-6.9-8.5-9.1-3.9-2.2-8.3-3.3-13.2-3.3-4.5 0-8.5 1.1-12.1 3.4-3.6 2.3-5.3 5-5.3 8.3 0 5.3 4.9 9 14.8 11.3l13.9 3.6c18.3 4.2 27.4 13.4 27.4 27.2zM1083.1 98.2c12.8 0 22.8 3.4 30.2 10.2 7.4 6.8 11.1 16.2 11.1 28v56.7h-16.5v-12.8h-.7c-7.1 10.5-16.6 15.8-28.5 15.8-10.1 0-18.6-3-25.4-9-6.8-6-10.2-13.5-10.2-22.5 0-9.5 3.6-17.1 10.8-22.7 7.2-5.6 16.8-8.4 28.8-8.4 10.3 0 18.7 1.9 25.3 5.6v-3.9c0-6-2.4-11.1-7.1-15.3-4.8-4.2-10.3-6.3-16.7-6.3-9.6 0-17.3 4.1-22.9 12.2l-15.2-9.6c8.2-12 20.6-18 37-18zm-22.4 66.8c0 4.5 1.9 8.3 5.7 11.3 3.8 3 8.3 4.5 13.4 4.5 7.3 0 13.7-2.7 19.4-8.1 5.7-5.4 8.5-11.7 8.5-18.9-5.4-4.2-12.9-6.4-22.5-6.4-7 0-12.9 1.7-17.5 5.1-4.6 3.3-7 7.5-7 12.5zM1192.4 196.2c-6.8 0-12.9-1.4-18.5-4.3s-9.8-6.7-12.9-11.4h-.8v12.8h-16.5V58.8h17.3v42.4l-.8 12.8h.8c3-4.8 7.3-8.6 12.9-11.4 5.6-2.9 11.7-4.3 18.5-4.3 12.1 0 22.4 4.8 30.8 14.3 8.6 9.6 12.9 21.2 12.9 34.7 0 13.6-4.3 25.2-12.9 34.7-8.4 9.4-18.6 14.2-30.8 14.2zm-2.8-15.8c8.3 0 15.2-3.1 20.8-9.4 5.6-6.1 8.4-14.1 8.4-23.8 0-9.6-2.8-17.6-8.4-23.8-5.6-6.3-12.6-9.4-20.8-9.4-8.4 0-15.4 3.1-21 9.4-5.5 6.3-8.3 14.2-8.3 23.8 0 9.8 2.7 17.8 8.3 24 5.6 6.1 12.6 9.2 21 9.2zM1268.2 58.8v134.3H1251V58.8h17.2zM1323.2 98.2c12.8 0 22.8 3.4 30.2 10.2 7.4 6.8 11.1 16.2 11.1 28v56.7H1348v-12.8h-.8c-7.1 10.5-16.6 15.8-28.5 15.8-10.1 0-18.6-3-25.4-9-6.8-6-10.2-13.5-10.2-22.5 0-9.5 3.6-17.1 10.8-22.7 7.2-5.6 16.8-8.4 28.8-8.4 10.3 0 18.7 1.9 25.3 5.6v-3.9c0-6-2.4-11.1-7.1-15.3-4.8-4.2-10.3-6.3-16.7-6.3-9.6 0-17.3 4.1-22.9 12.2l-15.2-9.6c8.3-12 20.7-18 37.1-18zm-22.3 66.8c0 4.5 1.9 8.3 5.7 11.3 3.8 3 8.3 4.5 13.4 4.5 7.3 0 13.7-2.7 19.4-8.1 5.7-5.4 8.5-11.7 8.5-18.9-5.4-4.2-12.9-6.4-22.5-6.4-7 0-12.9 1.7-17.5 5.1-4.7 3.3-7 7.5-7 12.5zM1384 101.2h16.5V114h.8c2.6-4.5 6.7-8.3 12.1-11.3 5.4-3 11.1-4.5 17-4.5 11.3 0 19.9 3.2 26 9.7 6.1 6.4 9.1 15.6 9.1 27.5v57.8h-17.3v-56.7c-.4-15-7.9-22.5-22.7-22.5-6.9 0-12.6 2.8-17.3 8.3-4.6 5.6-6.9 12.2-6.9 20v50.8H1384v-91.9zM1527.7 196.2c-13.6 0-25-4.6-34-13.9-8.9-9.5-13.3-21.2-13.3-35.1 0-14.1 4.4-25.8 13.3-35.1 9-9.3 20.3-13.9 34-13.9 9.4 0 17.6 2.3 24.6 7s12.3 11.2 15.8 19.4l-15.8 6.6c-4.9-11.5-13.4-17.3-25.7-17.3-7.9 0-14.7 3.2-20.4 9.6-5.6 6.4-8.4 14.3-8.4 23.6s2.8 17.3 8.4 23.6c5.8 6.4 12.6 9.6 20.4 9.6 12.6 0 21.5-5.8 26.6-17.3l15.4 6.6c-3.4 8.3-8.7 14.7-15.9 19.4-7.2 4.8-15.5 7.2-25 7.2zM1617.5 98.2c12.8 0 22.8 3.4 30.2 10.2 7.4 6.8 11.1 16.2 11.1 28v56.7h-16.5v-12.8h-.8c-7.1 10.5-16.6 15.8-28.5 15.8-10.1 0-18.6-3-25.4-9-6.8-6-10.2-13.5-10.2-22.5 0-9.5 3.6-17.1 10.8-22.7 7.2-5.6 16.8-8.4 28.8-8.4 10.3 0 18.7 1.9 25.3 5.6v-3.9c0-6-2.4-11.1-7.1-15.3-4.8-4.2-10.3-6.3-16.7-6.3-9.6 0-17.3 4.1-22.9 12.2l-15.2-9.6c8.4-12 20.7-18 37.1-18zm-22.3 66.8c0 4.5 1.9 8.3 5.7 11.3 3.8 3 8.3 4.5 13.4 4.5 7.3 0 13.7-2.7 19.4-8.1 5.7-5.4 8.5-11.7 8.5-18.9-5.4-4.2-12.9-6.4-22.5-6.4-7 0-12.9 1.7-17.5 5.1-4.7 3.3-7 7.5-7 12.5z"/></svg>