<svg id="Layer_4" xmlns="http://www.w3.org/2000/svg" viewBox="0 0 157.5 32"><style>.st0{fill:#673ab7}</style><g id="XMLID_261_"><path id="XMLID_259_" class="st0" d="M5.2 0H0l14.8 25.6 2.6-4.5L5.2 0z"/><path id="XMLID_258_" class="st0" d="M19.3 14.6L10.9 0H5.8l11.9 20.6 1.7-2.9c.3-.5.4-1 .4-1.6 0-.5-.2-1.1-.5-1.5z"/><path id="XMLID_257_" class="st0" d="M9 16.7L.2 32h5.1l6.3-10.9L9 16.7z"/><path id="XMLID_256_" class="st0" d="M11.9 21.6L5.9 32h5.2l3.4-5.9-2.6-4.5z"/></g><path class="st0" d="M43.7 8.4c0 1.7-.5 3.1-1.5 4.1-1.1 1.2-2.7 1.8-4.5 1.8-1.8 0-3.3-.6-4.5-1.9-1.2-1.2-1.9-2.8-1.9-4.6s.6-3.3 1.9-4.6 2.8-1.9 4.5-1.9c.9 0 1.8.2 2.6.5s1.5.8 2 1.4L41 4.4c-.4-.5-.9-.8-1.5-1.1S38.3 3 37.6 3c-1.3 0-2.5.5-3.4 1.4-.9.9-1.4 2.1-1.4 3.5s.5 2.6 1.4 3.5c.9.9 2.1 1.4 3.4 1.4 1.2 0 2.3-.4 3.1-1 .8-.7 1.3-1.6 1.4-2.8h-4.5V7.5h6c.1.3.1.6.1.9zm1.9 5.7V1.7h3.8c1.9 0 3.4.6 4.5 1.7s1.7 2.6 1.7 4.5-.6 3.3-1.7 4.5c-1.1 1.1-2.7 1.7-4.5 1.7h-3.8zm1.6-10.9v9.3h2.2c1.4 0 2.6-.4 3.4-1.2s1.2-2 1.2-3.4-.4-2.6-1.2-3.4-2-1.2-3.4-1.2l-2.2-.1zm22.2 5.2c0 1.7-.5 3.1-1.5 4.1-1.1 1.2-2.7 1.8-4.5 1.8-1.8 0-3.3-.6-4.5-1.9-1.3-1.2-1.9-2.7-1.9-4.5s.6-3.3 1.9-4.6 2.8-1.9 4.5-1.9c.9 0 1.8.2 2.6.5s1.5.8 2 1.4l-1.1 1.1c-.4-.5-.9-.8-1.5-1.1s-1.3-.3-2-.3c-1.3 0-2.5.5-3.4 1.4-.9.9-1.4 2.1-1.4 3.5s.5 2.6 1.4 3.5c.9.9 2.1 1.4 3.4 1.4 1.2 0 2.3-.4 3.1-1 .8-.7 1.3-1.6 1.4-2.8h-4.5V7.5h6v.9zm5.8 5.7V1.7H79c1.9 0 3.4.6 4.5 1.7s1.7 2.6 1.7 4.5-.6 3.3-1.7 4.5C82.4 13.5 80.8 14 79 14l-3.8.1zm1.5-10.9v9.3h2.2c1.4 0 2.6-.4 3.4-1.2s1.2-2 1.2-3.4-.4-2.6-1.2-3.4-2-1.2-3.4-1.2l-2.2-.1zm13.6 11.1c-1.2 0-2.3-.4-3.1-1.3-.8-.9-1.2-1.9-1.2-3.2s.4-2.4 1.2-3.2c.8-.9 1.8-1.3 3-1.3s2.3.4 3 1.2 1.1 2 1.1 3.4v.2h-6.6c0 .8.3 1.5.8 2s1.2.8 1.9.8c1 0 1.8-.5 2.4-1.5l1.4.7c-.4.7-.9 1.3-1.6 1.7-.7.3-1.4.5-2.3.5zm-2.5-5.5h4.8c-.1-.6-.3-1.1-.7-1.4s-1-.6-1.7-.6c-.6 0-1.1.2-1.5.6-.5.3-.8.8-.9 1.4zm11.9 5.3h-1.6l-3.4-8.5h1.7l2.5 6.5 2.5-6.5h1.7l-3.4 8.5zm6.4-5.3v5.3h-1.6V1.7h7.2v1.5h-5.6v4.1h5.1v1.5h-5.1zm10.4 5.5c-1.2 0-2.3-.4-3.1-1.3-.8-.9-1.2-1.9-1.2-3.2s.4-2.4 1.2-3.2c.8-.9 1.8-1.3 3-1.3s2.3.4 3 1.2 1.1 2 1.1 3.4v.2h-6.6c0 .8.3 1.5.8 2s1.2.8 1.9.8c1 0 1.8-.5 2.4-1.5l1.4.7c-.4.7-.9 1.3-1.6 1.7-.7.3-1.5.5-2.3.5zm-2.6-5.5h4.8c-.1-.6-.3-1.1-.7-1.4s-1-.6-1.7-.6c-.6 0-1.1.2-1.5.6-.4.3-.7.8-.9 1.4zm14.6 2.9c0 .7-.3 1.3-1 1.9-.6.5-1.4.8-2.4.8-.9 0-1.6-.2-2.2-.7-.6-.4-1.1-1-1.4-1.8l1.4-.6c.2.5.5.9.9 1.2.4.3.8.4 1.3.4s.9-.1 1.3-.3c.3-.2.5-.5.5-.8 0-.5-.4-.9-1.2-1.2l-1.4-.4c-1.6-.4-2.5-1.2-2.5-2.4 0-.8.3-1.4.9-1.9.6-.5 1.4-.7 2.4-.7.7 0 1.4.2 2 .5s1 .8 1.3 1.4l-1.4.7c-.2-.4-.4-.6-.8-.8s-.8-.3-1.2-.3c-.4 0-.8.1-1.1.3-.3.2-.5.5-.5.8 0 .5.5.8 1.4 1l1.3.3c1.5.5 2.4 1.3 2.4 2.6zm4.6 2.5c-.7 0-1.3-.2-1.7-.6-.5-.4-.7-1-.7-1.8V7.1h-1.5V5.6h1.5V3h1.6v2.6h2.1V7h-2.1v4.2c0 .6.1.9.3 1.1.2.2.5.3.7.3.1 0 .3 0 .4-.1.1 0 .2-.1.3-.1l.5 1.4c-.4.3-.8.4-1.4.4zM37.6 31c-1.8 0-3.3-.6-4.6-1.9-1.2-1.2-1.8-2.8-1.8-4.6 0-1.8.6-3.4 1.8-4.6 1.2-1.2 2.7-1.9 4.6-1.9 1.9 0 3.4.7 4.5 2L41 21.2c-.9-1.1-2-1.6-3.4-1.6s-2.5.5-3.4 1.4-1.4 2.1-1.4 3.6.5 2.6 1.4 3.6c.9.9 2.1 1.4 3.4 1.4 1.4 0 2.7-.6 3.7-1.8l1.2 1.1c-.6.7-1.3 1.2-2.2 1.6-.8.3-1.7.5-2.7.5zm9.4-9.1c1.2 0 2.1.3 2.8.9.7.6 1 1.5 1 2.6v5.2h-1.5v-1.2h-.1c-.7 1-1.5 1.4-2.6 1.4-.9 0-1.7-.3-2.3-.8s-.9-1.2-.9-2.1c0-.9.3-1.6 1-2.1s1.5-.8 2.6-.8c.9 0 1.7.2 2.3.5v-.4c0-.6-.2-1-.7-1.4-.4-.4-.9-.6-1.5-.6-.9 0-1.6.4-2.1 1.1l-1.4-.9c.7-.8 1.9-1.4 3.4-1.4zm-2.1 6.2c0 .4.2.8.5 1 .4.3.8.4 1.2.4.7 0 1.3-.3 1.8-.7.5-.5.8-1.1.8-1.8-.5-.4-1.2-.6-2.1-.6-.6 0-1.2.2-1.6.5-.3.4-.6.7-.6 1.2zm14.1.2c0 .7-.3 1.3-1 1.9-.6.5-1.4.8-2.4.8-.9 0-1.6-.2-2.2-.7-.6-.4-1.1-1-1.4-1.8l1.4-.6c.2.5.5.9.9 1.2.4.3.8.4 1.3.4s.9-.1 1.3-.3c.3-.2.5-.5.5-.8 0-.5-.4-.9-1.2-1.2l-1.4-.4c-1.6-.4-2.5-1.2-2.5-2.4 0-.8.3-1.4.9-1.9.6-.5 1.4-.7 2.4-.7.7 0 1.4.2 2 .5s1 .8 1.3 1.4l-1.4.6c-.2-.4-.4-.6-.8-.8-.4-.2-.8-.3-1.2-.3-.4 0-.8.1-1.1.3-.3.2-.5.5-.5.8 0 .5.5.8 1.4 1l1.3.3c1.5.6 2.4 1.4 2.4 2.7zm4.6-6.4c1.2 0 2.1.3 2.8.9.7.6 1 1.5 1 2.6v5.2h-1.5v-1.2h-.1c-.7 1-1.5 1.4-2.6 1.4-.9 0-1.7-.3-2.3-.8s-.9-1.2-.9-2.1c0-.9.3-1.6 1-2.1s1.5-.8 2.6-.8c.9 0 1.7.2 2.3.5v-.4c0-.6-.2-1-.7-1.4-.4-.4-.9-.6-1.5-.6-.9 0-1.6.4-2.1 1.1l-1.4-.9c.8-.8 1.9-1.4 3.4-1.4zm-2 6.2c0 .4.2.8.5 1 .4.3.8.4 1.2.4.7 0 1.3-.3 1.8-.7.5-.5.8-1.1.8-1.8-.5-.4-1.2-.6-2.1-.6-.6 0-1.2.2-1.6.5-.4.4-.6.7-.6 1.2zM73.7 31c-.6 0-1.2-.1-1.7-.4s-.9-.6-1.2-1h-.1v1.2h-1.5V18.3h1.6v3.9l-.1 1.2h.1c.3-.4.7-.8 1.2-1 .5-.3 1.1-.4 1.7-.4 1.1 0 2.1.4 2.8 1.3.8.9 1.2 2 1.2 3.2s-.4 2.3-1.2 3.2c-.8.8-1.7 1.3-2.8 1.3zm-.3-1.5c.8 0 1.4-.3 1.9-.9.5-.6.8-1.3.8-2.2 0-.9-.3-1.6-.8-2.2-.5-.6-1.2-.9-1.9-.9-.8 0-1.4.3-1.9.9-.5.6-.8 1.3-.8 2.2 0 .9.3 1.6.8 2.2.5.6 1.2.9 1.9.9zm7.3-11.2v12.4h-1.6V18.3h1.6zm5 3.6c1.2 0 2.1.3 2.8.9.7.6 1 1.5 1 2.6v5.2H88v-1.2h-.1c-.7 1-1.5 1.4-2.6 1.4-.9 0-1.7-.3-2.3-.8s-1-1.1-1-2c0-.9.3-1.6 1-2.1s1.5-.8 2.6-.8c.9 0 1.7.2 2.3.5v-.4c0-.6-.2-1-.7-1.4-.4-.4-.9-.6-1.5-.6-.9 0-1.6.4-2.1 1.1l-1.4-.9c.9-.9 2-1.5 3.5-1.5zm-2.1 6.2c0 .4.2.8.5 1s.8.4 1.2.4c.7 0 1.3-.3 1.8-.7.5-.5.8-1.1.8-1.8-.5-.4-1.2-.6-2.1-.6-.6 0-1.2.2-1.6.5-.4.4-.6.7-.6 1.2zm7.7-5.9h1.5v1.2h.1c.3-.4.6-.8 1.1-1s1-.4 1.5-.4c1 0 1.8.3 2.4.9.6.6.8 1.4.8 2.5v5.3h-1.6v-5.2c0-1.4-.7-2.1-2.1-2.1-.6 0-1.2.3-1.6.8-.4.5-.6 1.1-.6 1.8v4.7h-1.6v-8.5zm13.2 8.8c-1.2 0-2.3-.4-3.1-1.3-.8-.9-1.2-2-1.2-3.2 0-1.3.4-2.4 1.2-3.2.8-.9 1.9-1.3 3.1-1.3.9 0 1.6.2 2.3.6.6.4 1.1 1 1.4 1.8l-1.4.6c-.5-1.1-1.2-1.6-2.4-1.6-.7 0-1.3.3-1.9.9-.5.6-.8 1.3-.8 2.2 0 .9.3 1.6.8 2.2.5.6 1.2.9 1.9.9 1.2 0 2-.5 2.5-1.6l1.4.6c-.3.8-.8 1.3-1.4 1.8-.8.3-1.5.6-2.4.6zm8.3-9.1c1.2 0 2.1.3 2.8.9.7.6 1 1.5 1 2.6v5.2H115v-1.2h-.1c-.7 1-1.5 1.4-2.6 1.4-.9 0-1.7-.3-2.3-.8-.6-.6-.9-1.2-.9-2.1 0-.9.3-1.6 1-2.1s1.5-.8 2.6-.8c.9 0 1.7.2 2.3.5v-.4c0-.6-.2-1-.7-1.4-.4-.4-.9-.6-1.5-.6-.9 0-1.6.4-2.1 1.1l-1.4-.9c.8-.8 2-1.4 3.5-1.4zm-2.1 6.2c0 .4.2.8.5 1 .4.3.8.4 1.2.4.7 0 1.3-.3 1.8-.7.5-.5.8-1.1.8-1.8-.5-.4-1.2-.6-2.1-.6-.6 0-1.2.2-1.6.5-.4.4-.6.7-.6 1.2zm18.7 1.1v1.5h-7.5v-1.6l3-3.1c1-1 1.7-1.8 2.1-2.4.4-.5.6-1.1.6-1.6s-.2-1-.6-1.3c-.4-.4-.9-.6-1.5-.6-.5 0-1 .2-1.4.5-.4.3-.6.7-.8 1.2l-1.4-.6c.2-.7.7-1.3 1.3-1.8.7-.5 1.4-.8 2.3-.8 1.1 0 2 .3 2.7 1 .7.7 1.1 1.5 1.1 2.4 0 1.1-.6 2.4-1.9 3.7l-3.5 3.5h5.5zm1.5-4.4c0-1.8.4-3.3 1.3-4.4.9-1.2 2-1.8 3.4-1.8s2.5.6 3.4 1.8c.9 1.2 1.3 2.6 1.3 4.4 0 1.8-.4 3.2-1.3 4.4-.9 1.2-2 1.8-3.4 1.8s-2.5-.6-3.4-1.8c-.9-1.2-1.3-2.7-1.3-4.4zm7.9 0c0-1.3-.3-2.5-.9-3.3-.6-.9-1.3-1.3-2.3-1.3s-1.7.4-2.3 1.3c-.6.9-.9 2-.9 3.3 0 1.4.3 2.5.9 3.4.6.9 1.3 1.3 2.3 1.3s1.7-.4 2.3-1.3.9-2.1.9-3.4zm7.3-5.9v11.8h-1.6v-9.8l-2.3 1-.6-1.3 3.5-1.6h1zm10.2 8.5c0 1-.4 1.9-1.2 2.5-.8.7-1.7 1-2.8 1-1.1 0-2.1-.3-2.8-1-.8-.7-1.2-1.5-1.2-2.5 0-.6.2-1.2.5-1.7s.8-.9 1.4-1.2v-.1c-.5-.3-.8-.7-1.1-1.1-.3-.4-.4-.9-.4-1.4 0-1 .3-1.8 1-2.4.7-.6 1.5-.9 2.6-.9s1.9.3 2.6.9c.7.6 1 1.4 1 2.4 0 .5-.2.9-.4 1.4-.3.4-.7.8-1.1 1.1v.1c.6.3 1.1.7 1.4 1.2.3.5.5 1.1.5 1.7zm-6.4-.1c0 .3.1.6.2.8s.3.5.5.7c.2.2.5.3.8.4.3.1.6.2.9.2s.7-.1.9-.2.5-.3.8-.4c.2-.2.4-.4.5-.7s.2-.5.2-.8c0-.6-.2-1.1-.7-1.5-.5-.4-1-.6-1.7-.6s-1.2.2-1.7.6c-.5.5-.7.9-.7 1.5zm.4-5.4c0 .6.2 1 .6 1.3.4.3.8.5 1.4.5s1.1-.2 1.4-.5c.4-.3.6-.8.6-1.3 0-.6-.2-1-.6-1.3-.4-.3-.8-.5-1.4-.5s-1.1.2-1.4.5-.6.8-.6 1.3z"/></svg>