<svg id="Layer_4" xmlns="http://www.w3.org/2000/svg" viewBox="0 0 625 128"><style>.st0{fill:none}.st5{opacity:.2;enable-background:new}.st13,.st5{fill:#fff}</style><g id="XMLID_2_"><g id="XMLID_3_"><g id="XMLID_4_"><path id="XMLID_33_" class="st0" d="M78.7 58L45.1 0H.3l37 64-37 64h44.8l33.5-58c2.2-3.7 2.2-8.3.1-12z"/><path id="XMLID_32_" d="M59.4 102.3L48.8 83.9 23.3 128h21.8l14.6-25.2-.3-.5z" fill="#ffc107"/><path id="XMLID_31_" class="st0" d="M78.7 58L45.1 0H.3l37 64-37 64h44.8l33.5-58c2.2-3.7 2.2-8.3.1-12z"/><path id="XMLID_30_" d="M37.3 64l11.5 19.9L23.3 128H.3l37-64z" fill="#0f9d58"/><path id="XMLID_29_" class="st0" d="M78.7 58L45.1 0H.3l37 64-37 64h44.8l33.5-58c2.2-3.7 2.2-8.3.1-12z"/><path id="XMLID_28_" d="M45.1 127H23.8l-.5 1h21.8l14.6-25.2-.3-.5L45.1 127z" opacity=".2" fill="#bf360c"/><path id="XMLID_27_" class="st0" d="M78.7 58L45.1 0H.3l37 64-37 64h44.8l33.5-58c2.2-3.7 2.2-8.3.1-12z"/><path id="XMLID_26_" d="M.8 127l-.5 1h23l.5-1H.8z" opacity=".2" fill="#263238"/><path id="XMLID_25_" class="st0" d="M78.7 58L45.1 0H.3l37 64-37 64h44.8l33.5-58c2.2-3.7 2.2-8.3.1-12z"/><path id="XMLID_24_" class="st5" d="M.3 128h.5l36.8-63.5-.3-.5-37 64z"/><path id="XMLID_23_" class="st0" d="M78.7 58L45.1 0H.3l37 64-37 64h44.8l33.5-58c2.2-3.7 2.2-8.3.1-12z"/><radialGradient id="XMLID_7_" cx="59.537" cy="4.374" r="44.264" gradientTransform="translate(0 98)" gradientUnits="userSpaceOnUse"><stop offset="0" stop-color="#bf360c" stop-opacity=".2"/><stop offset="1" stop-color="#bf360c" stop-opacity=".02"/></radialGradient><path id="XMLID_22_" d="M59.7 102.8L48.8 83.9l-2.7 4.6 13.6 14.3z" fill="url(#XMLID_7_)"/><path id="XMLID_21_" class="st0" d="M78.7 58L45.1 0H.3l37 64-37 64h44.8l33.5-58c2.2-3.7 2.2-8.3.1-12z"/><radialGradient id="XMLID_34_" cx="59.411" cy="4.654" r="44.623" gradientTransform="translate(0 98)" gradientUnits="userSpaceOnUse"><stop offset="0" stop-color="#263238" stop-opacity=".2"/><stop offset="1" stop-color="#263238" stop-opacity=".02"/></radialGradient><path id="XMLID_20_" d="M46.1 88.5l2.7-4.6L37.3 64l-5.5 9.5 14.3 15z" fill="url(#XMLID_34_)"/><path id="XMLID_19_" class="st0" d="M78.7 58L45.1 0H.3l37 64-37 64h44.8l33.5-58c2.2-3.7 2.2-8.3.1-12z"/><g id="XMLID_16_"><g id="XMLID_17_"><path id="XMLID_18_" d="M23.3 0H.3l59.4 102.8 11.5-19.9L23.3 0z" fill="#4285f4"/></g></g><path id="XMLID_15_" class="st0" d="M78.7 58L45.1 0H.3l37 64-37 64h44.8l33.5-58c2.2-3.7 2.2-8.3.1-12z"/><path id="XMLID_14_" d="M78.7 70c2.1-3.7 2.1-8.3 0-12L45.1 0H23.3l47.9 82.9L78.7 70z" fill="#db4437"/><path id="XMLID_13_" class="st0" d="M78.7 58L45.1 0H.3l37 64-37 64h44.8l33.5-58c2.2-3.7 2.2-8.3.1-12z"/><path id="XMLID_12_" d="M71.2 82.9l-.3-.5-11.2 19.4L.8 0H.3l59.4 102.8 11.5-19.9z" opacity=".2" fill="#1a237e"/><path id="XMLID_11_" class="st0" d="M78.7 58L45.1 0H.3l37 64-37 64h44.8l33.5-58c2.2-3.7 2.2-8.3.1-12z"/><path id="XMLID_10_" class="st5" d="M45.1 1l33.5 58c1 1.7 1.5 3.6 1.6 5.5.1-2.2-.4-4.5-1.6-6.5L45.1 0H.3l.6 1h44.2z"/><path id="XMLID_9_" class="st0" d="M78.7 58L45.1 0H.3l37 64-37 64h44.8l33.5-58c2.2-3.7 2.2-8.3.1-12z"/><path id="XMLID_8_" d="M71.2 82.9L78.7 70c1.2-2 1.7-4.3 1.6-6.5-.1 1.9-.6 3.8-1.6 5.5L71 82.4l.2.5z" opacity=".2" fill="#3e2723"/><path id="XMLID_6_" class="st0" d="M78.7 58L45.1 0H.3l37 64-37 64h44.8l33.5-58c2.2-3.7 2.2-8.3.1-12z"/><radialGradient id="XMLID_35_" cx="-.74" cy="-97" r="134.35" gradientTransform="translate(0 98)" gradientUnits="userSpaceOnUse"><stop offset="0" stop-color="#fff" stop-opacity=".1"/><stop offset="1" stop-color="#fff" stop-opacity="0"/></radialGradient><path id="XMLID_5_" d="M78.7 58L45.1 0H.3l37 64-37 64h44.8l33.5-58c2.2-3.7 2.2-8.3.1-12z" fill="url(#XMLID_35_)"/></g></g></g><path class="st13" d="M176.5 33.2c0 6.8-2 12.2-6 16.2-4.5 4.8-10.5 7.2-17.9 7.2-7.1 0-13-2.4-17.9-7.3-4.9-4.9-7.3-10.9-7.3-18.1 0-7.2 2.4-13.2 7.3-18.1 4.9-4.9 10.9-7.3 17.9-7.3 3.6 0 7 .6 10.1 1.9 3.2 1.3 5.8 3.1 7.8 5.4l-4.5 4.5c-1.5-1.8-3.4-3.2-5.8-4.2s-4.9-1.5-7.6-1.5c-5.3 0-9.8 1.8-13.5 5.5-3.6 3.7-5.4 8.4-5.4 13.9 0 5.6 1.8 10.2 5.4 13.9 3.7 3.7 8.2 5.5 13.5 5.5 4.8 0 8.9-1.4 12.1-4.1 3.2-2.7 5.1-6.5 5.6-11.2h-17.7v-5.8h23.6c.2 1.2.3 2.4.3 3.6zM184.1 55.6V6.9H199c7.4 0 13.4 2.2 17.9 6.7 4.5 4.5 6.8 10.4 6.8 17.6 0 7.3-2.3 13.2-6.8 17.6-4.5 4.5-10.5 6.7-17.9 6.7h-14.9zm6.3-42.7v36.7h8.6c5.7 0 10.1-1.6 13.4-4.9s4.9-7.7 4.9-13.5c0-5.7-1.6-10.2-4.9-13.5s-7.7-4.9-13.4-4.9h-8.6zM277.9 33.2c0 6.8-2 12.2-6 16.2-4.5 4.8-10.5 7.2-17.9 7.2-7.1 0-13-2.4-17.9-7.3-4.9-4.9-7.3-10.9-7.3-18.1 0-7.2 2.4-13.2 7.3-18.1C241 8.2 247 5.8 254 5.8c3.6 0 7 .6 10.1 1.9 3.2 1.3 5.8 3.1 7.8 5.4l-4.5 4.5c-1.5-1.8-3.4-3.2-5.8-4.2s-4.9-1.5-7.6-1.5c-5.3 0-9.8 1.8-13.5 5.5-3.6 3.7-5.4 8.4-5.4 13.9 0 5.6 1.8 10.2 5.4 13.9 3.7 3.7 8.2 5.5 13.5 5.5 4.8 0 8.9-1.4 12.1-4.1 3.2-2.7 5.1-6.5 5.6-11.2H254v-5.8h23.6c.2 1.2.3 2.4.3 3.6zM300.5 55.6V6.9h14.9c7.4 0 13.4 2.2 17.9 6.7 4.5 4.5 6.8 10.4 6.8 17.6 0 7.3-2.3 13.2-6.8 17.6-4.5 4.5-10.5 6.7-17.9 6.7h-14.9zm6.2-42.7v36.7h8.6c5.7 0 10.1-1.6 13.4-4.9s4.9-7.7 4.9-13.5c0-5.7-1.6-10.2-4.9-13.5s-7.7-4.9-13.4-4.9h-8.6zM360.3 56.6c-4.9 0-8.9-1.7-12.1-5-3.2-3.4-4.8-7.6-4.8-12.7s1.5-9.3 4.6-12.7 7-5.1 11.8-5.1c4.9 0 8.9 1.6 11.8 4.8 2.9 3.2 4.4 7.7 4.4 13.4l-.1.7h-26.2c.1 3.3 1.2 5.9 3.3 7.9 2.1 2 4.6 3 7.5 3 4 0 7.1-2 9.4-6l5.6 2.7c-1.5 2.8-3.6 5-6.2 6.6-2.7 1.7-5.7 2.4-9 2.4zm-10-21.7h19.1c-.2-2.3-1.1-4.2-2.8-5.7-1.7-1.5-4-2.3-6.8-2.3-2.4 0-4.4.7-6.1 2.2-1.8 1.4-2.9 3.4-3.4 5.8zM397.2 55.6H391l-13.5-33.3h6.8l9.8 25.8h.1l9.9-25.8h6.7l-13.6 33.3zM422.2 34.7v20.9H416V6.9h28.4v6h-22.2v16h20v5.8h-20zM463.3 56.6c-4.9 0-8.9-1.7-12.1-5-3.2-3.4-4.8-7.6-4.8-12.7s1.5-9.3 4.6-12.7 7-5.1 11.8-5.1c4.9 0 8.9 1.6 11.8 4.8 2.9 3.2 4.4 7.7 4.4 13.4l-.1.7h-26.2c.1 3.3 1.2 5.9 3.3 7.9 2.1 2 4.6 3 7.5 3 4 0 7.1-2 9.4-6l5.6 2.7c-1.5 2.8-3.6 5-6.2 6.6-2.7 1.7-5.7 2.4-9 2.4zm-10-21.7h19.1c-.2-2.3-1.1-4.2-2.8-5.7-1.7-1.5-4-2.3-6.8-2.3-2.4 0-4.4.7-6.1 2.2-1.7 1.4-2.9 3.4-3.4 5.8zM510.6 46.3c0 2.9-1.3 5.3-3.8 7.3s-5.7 3-9.6 3c-3.4 0-6.3-.9-8.8-2.6-2.5-1.7-4.3-4-5.4-6.9l5.6-2.4c.8 2 2 3.5 3.6 4.7 1.6 1.1 3.3 1.7 5.1 1.7 2 0 3.7-.4 5-1.3 1.3-.9 2-1.9 2-3.1 0-2.1-1.6-3.7-4.9-4.7l-5.7-1.4c-6.5-1.6-9.7-4.8-9.7-9.4 0-3 1.2-5.5 3.7-7.3 2.5-1.8 5.6-2.8 9.5-2.8 2.9 0 5.6.7 8 2.1s4 3.3 5 5.6l-5.6 2.3c-.6-1.4-1.7-2.5-3.1-3.3-1.4-.8-3-1.2-4.8-1.2-1.6 0-3.1.4-4.4 1.2s-1.9 1.8-1.9 3c0 1.9 1.8 3.3 5.4 4.1l5 1.3c6.5 1.8 9.8 5.1 9.8 10.1zM528.9 56.1c-2.7 0-5-.8-6.8-2.5-1.8-1.7-2.7-4-2.8-7V28h-5.8v-5.7h5.8V12.1h6.3v10.2h8.2V28h-8.2v16.6c0 2.2.4 3.7 1.3 4.5.9.8 1.8 1.2 2.9 1.2.5 0 1-.1 1.5-.2s.9-.3 1.3-.4l2 5.6c-1.7.5-3.6.8-5.7.8zM152.6 122.2c-7.2 0-13.2-2.4-18.1-7.3-4.8-4.8-7.2-10.9-7.2-18.1 0-7.2 2.4-13.3 7.2-18.1 4.8-4.9 10.8-7.3 18.1-7.3 7.3 0 13.3 2.6 17.9 8l-4.5 4.3c-3.5-4.2-8-6.3-13.4-6.3s-9.9 1.8-13.5 5.4c-3.6 3.6-5.4 8.2-5.4 14 0 5.8 1.8 10.4 5.4 14 3.6 3.6 8.1 5.4 13.5 5.4 5.7 0 10.6-2.4 14.7-7.1l4.6 4.4c-2.3 2.8-5.1 4.9-8.5 6.4-3.4 1.5-7 2.3-10.8 2.3zM189.4 86.7c4.6 0 8.3 1.2 10.9 3.7 2.7 2.5 4 5.9 4 10.2v20.5h-6v-4.6h-.3c-2.6 3.8-6 5.7-10.3 5.7-3.7 0-6.7-1.1-9.2-3.3-2.5-2.2-3.7-4.9-3.7-8.2 0-3.4 1.3-6.2 3.9-8.2 2.6-2 6.1-3.1 10.4-3.1 3.7 0 6.8.7 9.2 2V100c0-2.2-.9-4-2.6-5.5-1.7-1.5-3.7-2.3-6-2.3-3.5 0-6.3 1.5-8.3 4.4l-5.5-3.5c3.1-4.2 7.6-6.4 13.5-6.4zm-8.1 24.2c0 1.6.7 3 2.1 4.1 1.4 1.1 3 1.6 4.9 1.6 2.6 0 5-1 7-2.9 2.1-1.9 3.1-4.2 3.1-6.9-1.9-1.5-4.7-2.3-8.2-2.3-2.5 0-4.7.6-6.4 1.8-1.6 1.3-2.5 2.8-2.5 4.6zM236.6 111.9c0 2.9-1.3 5.3-3.8 7.3s-5.7 3-9.6 3c-3.4 0-6.3-.9-8.8-2.6-2.5-1.7-4.3-4-5.4-6.9l5.6-2.4c.8 2 2 3.5 3.6 4.7 1.6 1.1 3.3 1.7 5.1 1.7 2 0 3.7-.4 5-1.3 1.3-.9 2-1.9 2-3.1 0-2.1-1.6-3.7-4.9-4.7l-5.7-1.4c-6.5-1.6-9.7-4.8-9.7-9.4 0-3 1.2-5.5 3.7-7.3 2.5-1.8 5.6-2.8 9.5-2.8 2.9 0 5.6.7 8 2.1s4 3.3 5 5.6l-5.6 2.3c-.6-1.4-1.7-2.5-3.1-3.3-1.4-.8-3-1.2-4.8-1.2-1.6 0-3.1.4-4.4 1.2-1.3.8-1.9 1.8-1.9 3 0 1.9 1.8 3.3 5.4 4.1l5 1.3c6.5 1.7 9.8 5 9.8 10.1zM255 86.7c4.6 0 8.3 1.2 10.9 3.7 2.7 2.5 4 5.9 4 10.2v20.5h-6v-4.6h-.3c-2.6 3.8-6 5.7-10.3 5.7-3.7 0-6.7-1.1-9.2-3.3-2.5-2.2-3.7-4.9-3.7-8.2 0-3.4 1.3-6.2 3.9-8.2 2.6-2 6.1-3.1 10.4-3.1 3.7 0 6.8.7 9.2 2V100c0-2.2-.9-4-2.6-5.5-1.7-1.5-3.7-2.3-6-2.3-3.5 0-6.3 1.5-8.3 4.4l-5.5-3.5c3.1-4.2 7.6-6.4 13.5-6.4zm-8.1 24.2c0 1.6.7 3 2.1 4.1 1.4 1.1 3 1.6 4.9 1.6 2.6 0 5-1 7-2.9 2.1-1.9 3.1-4.2 3.1-6.9-1.9-1.5-4.7-2.3-8.2-2.3-2.5 0-4.7.6-6.4 1.8-1.6 1.3-2.5 2.8-2.5 4.6zM294.6 122.2c-2.4 0-4.7-.5-6.7-1.6s-3.6-2.4-4.7-4.1h-.2v4.6h-6V72.5h6.3v15.4l-.3 4.6h.3c1.1-1.7 2.6-3.1 4.7-4.1 2-1 4.2-1.6 6.7-1.6 4.4 0 8.1 1.7 11.1 5.2 3.1 3.5 4.7 7.7 4.7 12.6 0 4.9-1.6 9.1-4.7 12.6-3.1 3.3-6.8 5-11.2 5zm-1-5.7c3 0 5.5-1.1 7.5-3.4 2-2.2 3.1-5.1 3.1-8.6s-1-6.4-3.1-8.6c-2-2.3-4.6-3.4-7.5-3.4-3 0-5.6 1.1-7.6 3.4s-3 5.1-3 8.6 1 6.4 3 8.7c2 2.2 4.6 3.3 7.6 3.3zM322.1 72.5v48.7h-6.3V72.5h6.3zM342 86.7c4.6 0 8.3 1.2 10.9 3.7 2.7 2.5 4 5.9 4 10.2v20.5h-6v-4.6h-.3c-2.6 3.8-6 5.7-10.3 5.7-3.7 0-6.7-1.1-9.2-3.3-2.5-2.2-3.7-4.9-3.7-8.2 0-3.4 1.3-6.2 3.9-8.2 2.6-2 6.1-3.1 10.4-3.1 3.7 0 6.8.7 9.2 2V100c0-2.2-.9-4-2.6-5.5-1.7-1.5-3.7-2.3-6-2.3-3.5 0-6.3 1.5-8.3 4.4l-5.5-3.5c3.1-4.2 7.5-6.4 13.5-6.4zm-8.1 24.2c0 1.6.7 3 2.1 4.1 1.4 1.1 3 1.6 4.9 1.6 2.6 0 5-1 7-2.9 2.1-1.9 3.1-4.2 3.1-6.9-1.9-1.5-4.7-2.3-8.2-2.3-2.5 0-4.7.6-6.4 1.8-1.7 1.3-2.5 2.8-2.5 4.6zM364 87.8h6v4.6h.3c1-1.6 2.4-3 4.4-4.1 2-1.1 4-1.6 6.1-1.6 4.1 0 7.2 1.2 9.4 3.5s3.3 5.7 3.3 10v20.9h-6.3v-20.5c-.1-5.4-2.9-8.2-8.2-8.2-2.5 0-4.6 1-6.3 3-1.7 2-2.5 4.4-2.5 7.2V121H364V87.8zM416 122.2c-4.9 0-9-1.7-12.3-5-3.2-3.4-4.8-7.7-4.8-12.7 0-5.1 1.6-9.4 4.8-12.7 3.3-3.4 7.4-5 12.3-5 3.4 0 6.4.8 8.9 2.5s4.4 4 5.7 7l-5.7 2.4c-1.8-4.2-4.9-6.3-9.3-6.3-2.9 0-5.3 1.2-7.4 3.5-2 2.3-3.1 5.2-3.1 8.6s1 6.3 3.1 8.6 4.6 3.5 7.4 3.5c4.6 0 7.8-2.1 9.7-6.3l5.6 2.4c-1.2 3-3.1 5.3-5.7 7-2.7 1.6-5.7 2.5-9.2 2.5zM448.6 86.7c4.6 0 8.3 1.2 10.9 3.7 2.7 2.5 4 5.9 4 10.2v20.5h-6v-4.6h-.3c-2.6 3.8-6 5.7-10.3 5.7-3.7 0-6.7-1.1-9.2-3.3-2.5-2.2-3.7-4.9-3.7-8.2 0-3.4 1.3-6.2 3.9-8.2 2.6-2 6.1-3.1 10.4-3.1 3.7 0 6.8.7 9.2 2V100c0-2.2-.9-4-2.6-5.5-1.7-1.5-3.7-2.3-6-2.3-3.5 0-6.3 1.5-8.3 4.4l-5.5-3.5c3.1-4.2 7.6-6.4 13.5-6.4zm-8.1 24.2c0 1.6.7 3 2.1 4.1 1.4 1.1 3 1.6 4.9 1.6 2.6 0 5-1 7-2.9 2.1-1.9 3.1-4.2 3.1-6.9-1.9-1.5-4.7-2.3-8.2-2.3-2.5 0-4.7.6-6.4 1.8-1.6 1.3-2.5 2.8-2.5 4.6zM514.1 115.1v6h-29.6v-6.3l12-12.2c4-4.1 6.8-7.2 8.4-9.3 1.5-2.1 2.3-4.2 2.3-6.5 0-2-.8-3.8-2.4-5.2-1.6-1.4-3.6-2.2-6.1-2.2-2.1 0-4 .6-5.5 1.9-1.5 1.3-2.5 2.8-3 4.6l-5.7-2.3c.9-2.9 2.6-5.3 5.2-7.2 2.6-2 5.6-3 9.1-3 4.2 0 7.7 1.3 10.5 3.9 2.8 2.6 4.2 5.8 4.2 9.5 0 4.5-2.5 9.3-7.4 14.5L492.5 115h21.6zM520.1 97.9c0-7.1 1.7-12.9 5.2-17.5s8-6.9 13.5-6.9 10 2.3 13.5 6.9c3.5 4.6 5.2 10.4 5.2 17.4 0 7-1.7 12.8-5.2 17.5-3.5 4.6-8 6.9-13.5 6.9s-10-2.3-13.5-6.9c-3.5-4.6-5.2-10.5-5.2-17.4zm31 0c0-5.3-1.1-9.7-3.4-13.2-2.2-3.4-5.2-5.2-8.9-5.2s-6.7 1.7-8.9 5.2c-2.3 3.4-3.4 7.8-3.4 13.2s1.1 9.8 3.4 13.3c2.2 3.4 5.2 5.1 8.9 5.1s6.7-1.7 8.9-5.2 3.4-7.9 3.4-13.2zM580.2 74.6v46.5h-6.3V82.4l-9 3.9-2.4-5.3 13.7-6.4h4zM620.1 108.3c0 4-1.5 7.3-4.6 9.9-3.1 2.7-6.8 4-11.2 4-4.4 0-8.1-1.3-11.2-4-3-2.6-4.6-5.9-4.6-9.9 0-2.4.7-4.7 2-6.7s3.2-3.6 5.6-4.8v-.3c-1.8-1.2-3.3-2.6-4.4-4.3-1.1-1.7-1.7-3.5-1.7-5.4 0-3.8 1.3-6.9 4-9.4 2.6-2.5 6-3.7 10.2-3.7 4.2 0 7.6 1.2 10.2 3.7 2.7 2.5 4 5.7 4 9.4 0 1.9-.6 3.7-1.7 5.4-1.1 1.7-2.6 3.2-4.4 4.3v.3c2.4 1.2 4.3 2.8 5.6 4.8 1.6 2 2.2 4.2 2.2 6.7zm-25.1-.4c0 1.2.2 2.3.7 3.3.5 1 1.1 1.9 2 2.6.8.7 1.8 1.3 3 1.7 1.1.4 2.4.6 3.7.6s2.6-.2 3.7-.6c1.1-.4 2.1-1 3-1.7.8-.7 1.5-1.6 2-2.6s.7-2.1.7-3.3c0-2.4-.9-4.3-2.7-5.8-1.8-1.6-4-2.4-6.7-2.4-2.6 0-4.9.8-6.7 2.4-1.8 1.6-2.7 3.5-2.7 5.8zm1.5-21.3c0 2.2.7 3.9 2.2 5.3 1.4 1.3 3.3 2 5.6 2s4.2-.7 5.6-2c1.4-1.3 2.2-3.1 2.2-5.3s-.7-3.9-2.2-5.2c-1.5-1.3-3.3-1.9-5.6-1.9s-4.2.6-5.6 1.9c-1.4 1.3-2.2 3-2.2 5.2z"/></svg>